<svg width="40" height="40" viewBox="0 0 40 40" fill="none" xmlns="http://www.w3.org/2000/svg">
<mask id="mask0_178_8" style="mask-type:luminance" maskUnits="userSpaceOnUse" x="3" y="3" width="34" height="34">
<path fill-rule="evenodd" clip-rule="evenodd" d="M3.63999 35.5517C3.60859 35.6646 3.60754 35.7839 3.63696 35.8974C3.66638 36.011 3.72522 36.1147 3.80755 36.1982C3.88988 36.2817 3.99278 36.3421 4.10587 36.3731C4.21896 36.4041 4.33824 36.4048 4.45166 36.375L12.13 34.3683C14.5661 35.6879 17.2928 36.3792 20.0633 36.38H20.07C29.2133 36.38 36.6667 28.97 36.6667 19.86C36.6723 17.6876 36.2458 15.5357 35.412 13.5297C34.5782 11.5236 33.3538 9.70342 31.81 8.17499C30.2688 6.63402 28.4382 5.41295 26.4234 4.58204C24.4086 3.75112 22.2494 3.32675 20.07 3.33333C10.9267 3.33333 3.47333 10.7433 3.47333 19.8517C3.47333 22.75 4.23666 25.5967 5.68999 28.1083L3.63999 35.5517ZM14.81 11.95C15.115 11.9583 15.4533 11.975 15.775 12.6883C15.9883 13.1633 16.3467 14.0383 16.64 14.7517C16.8683 15.3067 17.055 15.7633 17.1017 15.8567C17.21 16.07 17.275 16.315 17.135 16.6033L17.0883 16.7C16.975 16.9333 16.895 17.1 16.705 17.3167L16.4667 17.6C16.325 17.7733 16.1833 17.9433 16.0633 18.0633C15.8483 18.2767 15.6267 18.5067 15.8733 18.9333C16.12 19.36 16.9867 20.7633 18.265 21.895C19.2 22.7383 20.2728 23.4148 21.4367 23.895C21.5533 23.945 21.6478 23.9872 21.72 24.0217C22.1483 24.235 22.4033 24.2017 22.65 23.915C22.8983 23.6267 23.7217 22.6667 24.0117 22.24C24.2917 21.8133 24.5783 21.88 24.975 22.0267C25.3717 22.175 27.4817 23.21 27.91 23.4217L28.1483 23.5383C28.4467 23.68 28.6483 23.7783 28.735 23.9217C28.8417 24.1033 28.8417 24.955 28.4883 25.9583C28.125 26.9583 26.3767 27.9183 25.585 27.9917L25.36 28.0183C24.6333 28.105 23.7133 28.2183 20.4333 26.9267C16.39 25.3367 13.7217 21.3933 13.1833 20.595L13.095 20.4683L13.0867 20.455C12.84 20.1267 11.3383 18.1183 11.3383 16.045C11.3383 14.0617 12.3167 13.0283 12.7617 12.5583L12.84 12.475C12.984 12.3123 13.16 12.181 13.357 12.0892C13.554 11.9974 13.7678 11.9472 13.985 11.9417C14.2733 11.9417 14.5633 11.9417 14.81 11.95Z" fill="white"/>
</mask>
<g mask="url(#mask0_178_8)">
<path fill-rule="evenodd" clip-rule="evenodd" d="M3.63999 35.5517C3.60859 35.6646 3.60754 35.7839 3.63696 35.8974C3.66638 36.011 3.72522 36.1147 3.80755 36.1982C3.88988 36.2817 3.99278 36.3421 4.10587 36.3731C4.21896 36.4041 4.33824 36.4048 4.45166 36.375L12.13 34.3683C14.5661 35.6879 17.2928 36.3792 20.0633 36.38H20.07C29.2133 36.38 36.6667 28.97 36.6667 19.86C36.6723 17.6876 36.2458 15.5357 35.412 13.5297C34.5782 11.5236 33.3538 9.70342 31.81 8.17499C30.2688 6.63402 28.4382 5.41295 26.4234 4.58204C24.4086 3.75112 22.2494 3.32675 20.07 3.33333C10.9267 3.33333 3.47333 10.7433 3.47333 19.8517C3.47333 22.75 4.23666 25.5967 5.68999 28.1083L3.63999 35.5517ZM14.81 11.95C15.115 11.9583 15.4533 11.975 15.775 12.6883C15.9883 13.1633 16.3467 14.0383 16.64 14.7517C16.8683 15.3067 17.055 15.7633 17.1017 15.8567C17.21 16.07 17.275 16.315 17.135 16.6033L17.0883 16.7C16.975 16.9333 16.895 17.1 16.705 17.3167L16.4667 17.6C16.325 17.7733 16.1833 17.9433 16.0633 18.0633C15.8483 18.2767 15.6267 18.5067 15.8733 18.9333C16.12 19.36 16.9867 20.7633 18.265 21.895C19.2 22.7383 20.2728 23.4148 21.4367 23.895C21.5533 23.945 21.6478 23.9872 21.72 24.0217C22.1483 24.235 22.4033 24.2017 22.65 23.915C22.8983 23.6267 23.7217 22.6667 24.0117 22.24C24.2917 21.8133 24.5783 21.88 24.975 22.0267C25.3717 22.175 27.4817 23.21 27.91 23.4217L28.1483 23.5383C28.4467 23.68 28.6483 23.7783 28.735 23.9217C28.8417 24.1033 28.8417 24.955 28.4883 25.9583C28.125 26.9583 26.3767 27.9183 25.585 27.9917L25.36 28.0183C24.6333 28.105 23.7133 28.2183 20.4333 26.9267C16.39 25.3367 13.7217 21.3933 13.1833 20.595L13.095 20.4683L13.0867 20.455C12.84 20.1267 11.3383 18.1183 11.3383 16.045C11.3383 14.0617 12.3167 13.0283 12.7617 12.5583L12.84 12.475C12.984 12.3123 13.16 12.181 13.357 12.0892C13.554 11.9974 13.7678 11.9472 13.985 11.9417C14.2733 11.9417 14.5633 11.9417 14.81 11.95Z" fill="black" stroke="black" stroke-width="3.33333" stroke-linejoin="round"/>
</g>
</svg>
