<svg width="50" height="50" viewBox="0 0 50 50" fill="none" xmlns="http://www.w3.org/2000/svg">
<path d="M25 47.9166C13.4229 45.3437 4.16666 34.4208 4.16666 22.9166V10.4166L25 2.08331L45.8333 10.4166V22.9166C45.8333 34.425 36.5771 45.3437 25 47.9166ZM8.33333 12.5V22.9166C8.45239 27.7336 10.1466 32.3788 13.1566 36.1413C16.1667 39.9039 20.3267 42.5765 25 43.75C29.6733 42.5765 33.8333 39.9039 36.8434 36.1413C39.8534 32.3788 41.5476 27.7336 41.6667 22.9166V12.5L25 6.24998L8.33333 12.5Z" fill="white"/>
<path d="M25 22.9167C27.8765 22.9167 30.2083 20.5848 30.2083 17.7083C30.2083 14.8319 27.8765 12.5 25 12.5C22.1235 12.5 19.7917 14.8319 19.7917 17.7083C19.7917 20.5848 22.1235 22.9167 25 22.9167Z" fill="white"/>
<path d="M14.5833 31.25C15.6099 33.1215 17.1154 34.6866 18.9458 35.7848C20.7762 36.883 22.8656 37.475 25 37.5C27.1344 37.475 29.2238 36.883 31.0542 35.7848C32.8846 34.6866 34.3902 33.1215 35.4167 31.25C35.3646 27.3 28.4542 25 25 25C21.5271 25 14.6354 27.3 14.5833 31.25Z" fill="white"/>
</svg>
